<svg width="25" height="24" viewBox="0 0 25 24" fill="none" xmlns="http://www.w3.org/2000/svg">
<path d="M16.252 10.6569L12.302 6.70692C12.1199 6.51832 12.0191 6.26571 12.0213 6.00352C12.0236 5.74132 12.1288 5.49051 12.3142 5.3051C12.4996 5.11969 12.7504 5.01452 13.0126 5.01224C13.2748 5.00997 13.5274 5.11076 13.716 5.29292L19.373 10.9499C19.4662 11.0426 19.5401 11.1527 19.5906 11.2741C19.6411 11.3954 19.6671 11.5255 19.6671 11.6569C19.6671 11.7883 19.6411 11.9184 19.5906 12.0398C19.5401 12.1611 19.4662 12.2713 19.373 12.3639L13.716 18.0209C13.6238 18.1164 13.5134 18.1926 13.3914 18.245C13.2694 18.2974 13.1382 18.325 13.0054 18.3262C12.8726 18.3273 12.741 18.302 12.6181 18.2517C12.4952 18.2015 12.3835 18.1272 12.2896 18.0333C12.1957 17.9394 12.1215 17.8278 12.0712 17.7049C12.0209 17.582 11.9956 17.4503 11.9968 17.3175C11.9979 17.1847 12.0255 17.0535 12.0779 16.9315C12.1303 16.8095 12.2065 16.6992 12.302 16.6069L16.252 12.6569H6.66602C6.4008 12.6569 6.14645 12.5516 5.95891 12.364C5.77137 12.1765 5.66602 11.9221 5.66602 11.6569C5.66602 11.3917 5.77137 11.1373 5.95891 10.9498C6.14645 10.7623 6.4008 10.6569 6.66602 10.6569H16.252Z" fill="#E2E8F0"/>
</svg>
