<svg width="24" height="25" viewBox="0 0 24 25" fill="none" xmlns="http://www.w3.org/2000/svg">
<path d="M12.0716 13.814L17.0216 8.864C17.1139 8.76849 17.2242 8.69231 17.3462 8.6399C17.4682 8.58749 17.5995 8.55991 17.7322 8.55875C17.865 8.5576 17.9967 8.5829 18.1196 8.63318C18.2425 8.68346 18.3541 8.75772 18.448 8.85161C18.5419 8.9455 18.6162 9.05715 18.6665 9.18005C18.7167 9.30295 18.742 9.43463 18.7409 9.56741C18.7397 9.70018 18.7121 9.8314 18.6597 9.95341C18.6073 10.0754 18.5311 10.1858 18.4356 10.278L12.7786 15.935C12.5911 16.1225 12.3368 16.2278 12.0716 16.2278C11.8065 16.2278 11.5522 16.1225 11.3646 15.935L5.70763 10.278C5.61212 10.1858 5.53594 10.0754 5.48353 9.95341C5.43112 9.8314 5.40354 9.70018 5.40238 9.56741C5.40123 9.43463 5.42653 9.30295 5.47681 9.18005C5.52709 9.05715 5.60134 8.9455 5.69524 8.85161C5.78913 8.75772 5.90078 8.68346 6.02368 8.63318C6.14657 8.5829 6.27825 8.5576 6.41103 8.55875C6.54381 8.55991 6.67503 8.58749 6.79704 8.6399C6.91904 8.69231 7.02939 8.76849 7.12163 8.864L12.0716 13.814Z" fill="white"/>
</svg>
