<svg width="676" height="504" viewBox="0 0 676 504" fill="none" xmlns="http://www.w3.org/2000/svg">
<g filter="url(#filter0_dd_122_37123)">
<g clip-path="url(#clip0_122_37123)">
<rect x="38" y="15" width="600" height="426" rx="20" fill="white"/>
<path d="M59.0007 39.6937C56.6994 39.6937 54.834 37.8283 54.834 35.527C54.834 33.2258 56.6994 31.3604 59.0007 31.3604C61.3019 31.3604 63.1673 33.2258 63.1673 35.527C63.1673 37.8283 61.3019 39.6937 59.0007 39.6937Z" fill="#E11D48"/>
<path d="M74.0007 39.6937C71.6994 39.6937 69.834 37.8283 69.834 35.527C69.834 33.2258 71.6994 31.3604 74.0007 31.3604C76.3019 31.3604 78.1673 33.2258 78.1673 35.527C78.1673 37.8283 76.3019 39.6937 74.0007 39.6937Z" fill="#FBBF24"/>
<path d="M89.0007 39.6937C86.6994 39.6937 84.834 37.8283 84.834 35.527C84.834 33.2258 86.6994 31.3604 89.0007 31.3604C91.3019 31.3604 93.1673 33.2258 93.1673 35.527C93.1673 37.8283 91.3019 39.6937 89.0007 39.6937Z" fill="#22C55E"/>
<rect x="38" y="56" width="600" height="385" fill="#DBEAFE"/>
<path d="M38 56.5134H138.503V441H38V56.5134Z" fill="#BFDBFE"/>
<path d="M50.0605 92.9601C50.0605 89.558 52.7603 86.8 56.0907 86.8H120.412C123.743 86.8 126.442 89.558 126.442 92.9601V92.9601C126.442 96.3621 123.743 99.1201 120.412 99.1201H56.0907C52.7603 99.1201 50.0605 96.3621 50.0605 92.9601V92.9601Z" fill="#93C5FD"/>
<path d="M74.1816 136.08C74.1816 134.379 75.5315 133 77.1967 133H127.448C129.113 133 130.463 134.379 130.463 136.08V136.08C130.463 137.781 129.113 139.16 127.448 139.16H77.1967C75.5315 139.16 74.1816 137.781 74.1816 136.08V136.08Z" fill="white"/>
<path d="M74.1816 168.933C74.1816 167.232 75.5315 165.853 77.1967 165.853H111.87C113.535 165.853 114.885 167.232 114.885 168.933V168.933C114.885 170.634 113.535 172.013 111.87 172.013H77.1967C75.5315 172.013 74.1816 170.634 74.1816 168.933V168.933Z" fill="white"/>
<path d="M74.1816 201.787C74.1816 200.086 75.5315 198.707 77.1967 198.707H120.413C122.078 198.707 123.428 200.086 123.428 201.787V201.787C123.428 203.488 122.078 204.867 120.413 204.867H77.1967C75.5315 204.867 74.1816 203.488 74.1816 201.787V201.787Z" fill="white"/>
<path fill-rule="evenodd" clip-rule="evenodd" d="M58.1007 142.753C61.7086 142.753 64.6334 139.766 64.6334 136.08C64.6334 132.394 61.7086 129.407 58.1007 129.407C54.4929 129.407 51.5681 132.394 51.5681 136.08C51.5681 139.766 54.4929 142.753 58.1007 142.753ZM58.1007 144.293C62.5412 144.293 66.1409 140.616 66.1409 136.08C66.1409 131.544 62.5412 127.867 58.1007 127.867C53.6603 127.867 50.0605 131.544 50.0605 136.08C50.0605 140.616 53.6603 144.293 58.1007 144.293Z" fill="#93C5FD"/>
<path d="M170.664 92.9599C170.664 90.6919 172.464 88.8533 174.684 88.8533H232.976C235.196 88.8533 236.996 90.6919 236.996 92.9599V92.9599C236.996 95.228 235.196 97.0666 232.976 97.0666H174.684C172.464 97.0666 170.664 95.228 170.664 92.9599V92.9599Z" fill="#BFDBFE"/>
<path fill-rule="evenodd" clip-rule="evenodd" d="M277.45 258.541C277.479 255.613 279.756 253.12 282.683 253.12C284.479 253.12 285.8 254.028 286.644 254.884C286.878 255.122 287.08 255.359 287.249 255.578C287.417 255.359 287.619 255.122 287.854 254.884C288.697 254.028 290.018 253.12 291.815 253.12C294.741 253.12 297.018 255.613 297.048 258.541L297.048 258.541C297.103 264.252 292.612 268.203 288.097 271.333C287.847 271.507 287.551 271.6 287.249 271.6C286.946 271.6 286.651 271.507 286.401 271.333C281.885 268.203 277.393 264.252 277.45 258.541L277.45 258.541ZM287.922 257.316C287.794 257.576 287.534 257.74 287.249 257.74C286.964 257.74 286.703 257.576 286.575 257.316C286.575 257.316 286.575 257.315 286.575 257.315C286.574 257.313 286.572 257.31 286.57 257.306C286.569 257.303 286.568 257.301 286.566 257.298C286.558 257.282 286.543 257.255 286.524 257.22C286.484 257.15 286.423 257.045 286.339 256.917C286.171 256.66 285.918 256.317 285.582 255.977C284.906 255.292 283.945 254.66 282.683 254.66C280.638 254.66 278.979 256.415 278.957 258.557M287.922 257.316C287.922 257.316 287.922 257.315 287.923 257.315C287.924 257.312 287.927 257.306 287.931 257.298C287.94 257.282 287.954 257.255 287.974 257.22C288.013 257.15 288.075 257.045 288.159 256.917C288.327 256.66 288.58 256.317 288.916 255.977C289.591 255.292 290.553 254.66 291.815 254.66C293.859 254.66 295.519 256.415 295.54 258.557C295.587 263.369 291.804 266.902 287.249 270.06L287.249 270.06L287.248 270.06C282.693 266.902 278.91 263.369 278.957 258.557" fill="white"/>
<path d="M170.664 262.36C170.664 260.092 172.464 258.253 174.684 258.253H201.82C204.04 258.253 205.84 260.092 205.84 262.36V262.36C205.84 264.628 204.04 266.467 201.82 266.467H174.684C172.464 266.467 170.664 264.628 170.664 262.36V262.36Z" fill="#BFDBFE"/>
<path d="M213.881 262.36C213.881 260.092 215.681 258.253 217.901 258.253H263.127C265.347 258.253 267.147 260.092 267.147 262.36V262.36C267.147 264.628 265.347 266.467 263.127 266.467H217.901C215.681 266.467 213.881 264.628 213.881 262.36V262.36Z" fill="#BFDBFE"/>
<path d="M170.664 302.4C170.664 300.699 172.014 299.32 173.679 299.32H215.89C217.555 299.32 218.905 300.699 218.905 302.4V302.4C218.905 304.101 217.555 305.48 215.89 305.48H173.679C172.014 305.48 170.664 304.101 170.664 302.4V302.4Z" fill="white"/>
<path d="M170.664 316.773C170.664 315.072 172.014 313.693 173.679 313.693H238.503C240.168 313.693 241.518 315.072 241.518 316.773V316.773C241.518 318.474 240.168 319.853 238.503 319.853H173.679C172.014 319.853 170.664 318.474 170.664 316.773V316.773Z" fill="white"/>
<path d="M226.945 302.4C226.945 300.699 228.295 299.32 229.96 299.32H280.212C281.877 299.32 283.227 300.699 283.227 302.4V302.4C283.227 304.101 281.877 305.48 280.212 305.48H229.96C228.295 305.48 226.945 304.101 226.945 302.4V302.4Z" fill="white"/>
<path d="M170.664 133C170.664 131.299 172.014 129.92 173.679 129.92H215.89C217.555 129.92 218.905 131.299 218.905 133V133C218.905 134.701 217.555 136.08 215.89 136.08H173.679C172.014 136.08 170.664 134.701 170.664 133V133Z" fill="white"/>
<path d="M170.664 147.373C170.664 145.672 172.014 144.293 173.679 144.293H277.699C279.364 144.293 280.714 145.672 280.714 147.373V147.373C280.714 149.074 279.364 150.453 277.699 150.453H173.679C172.014 150.453 170.664 149.074 170.664 147.373V147.373Z" fill="white"/>
<path d="M226.945 133C226.945 131.299 228.295 129.92 229.96 129.92H344.533C346.198 129.92 347.548 131.299 347.548 133V133C347.548 134.701 346.198 136.08 344.533 136.08H229.96C228.295 136.08 226.945 134.701 226.945 133V133Z" fill="white"/>
<path fill-rule="evenodd" clip-rule="evenodd" d="M65.1354 162.26H52.07V175.607H65.1354V162.26ZM50.5625 160.72V177.147H66.6429V160.72H50.5625Z" fill="#60A5FA"/>
<g clip-path="url(#clip1_122_37123)">
<rect x="386.242" y="92.96" width="100.503" height="140.653" rx="20" fill="white"/>
<path d="M453.189 233.735C453.189 269.327 425.178 298.179 390.625 298.179C356.071 298.179 328.061 269.327 328.061 233.735C328.061 198.143 356.071 169.29 390.625 169.29C425.178 169.29 453.189 198.143 453.189 233.735Z" fill="#FACC15"/>
<path fill-rule="evenodd" clip-rule="evenodd" d="M500.696 147.738L468.006 114.344L435.315 147.738L468.006 181.132L500.696 147.738ZM468.006 111.44L432.473 147.738L468.006 184.036L503.539 147.738L468.006 111.44Z" fill="#BFDBFE"/>
</g>
<path d="M58.6027 194.6L66.6429 208.826H50.5625L58.6027 194.6Z" fill="#93C5FD"/>
<rect x="502.824" y="92.96" width="100.502" height="103.693" rx="20" fill="white"/>
<path fill-rule="evenodd" clip-rule="evenodd" d="M548.035 170.276C558.055 170.276 566.109 162.055 566.109 152C566.109 141.945 558.055 133.724 548.035 133.724C538.015 133.724 529.961 141.945 529.961 152C529.961 162.055 538.015 170.276 548.035 170.276ZM548.035 175.41C560.792 175.41 571.134 164.929 571.134 152C571.134 139.071 560.792 128.591 548.035 128.591C535.277 128.591 524.936 139.071 524.936 152C524.936 164.929 535.277 175.41 548.035 175.41Z" fill="#BFDBFE"/>
<path d="M558.533 144.59L565.179 119.255L583.335 137.802L558.533 144.59Z" fill="#FACC15"/>
<g clip-path="url(#clip2_122_37123)">
<rect x="386.242" y="250.04" width="100.503" height="157.08" rx="20" fill="white"/>
<path fill-rule="evenodd" clip-rule="evenodd" d="M480.464 427.14C508.633 427.14 531.469 403.813 531.469 375.037C531.469 346.261 508.633 322.933 480.464 322.933C452.294 322.933 429.459 346.261 429.459 375.037C429.459 403.813 452.294 427.14 480.464 427.14ZM480.464 432.273C511.408 432.273 536.494 406.648 536.494 375.037C536.494 343.426 511.408 317.8 480.464 317.8C449.519 317.8 424.434 343.426 424.434 375.037C424.434 406.648 449.519 432.273 480.464 432.273Z" fill="#FACC15"/>
<path d="M439.005 296.87C439.005 306.573 431.244 314.439 421.669 314.439C412.094 314.439 404.332 306.573 404.332 296.87C404.332 287.166 412.094 279.3 421.669 279.3C431.244 279.3 439.005 287.166 439.005 296.87Z" fill="#BFDBFE"/>
<path fill-rule="evenodd" clip-rule="evenodd" d="M421.669 312.899C430.422 312.899 437.498 305.711 437.498 296.87C437.498 288.028 430.422 280.84 421.669 280.84C412.915 280.84 405.84 288.028 405.84 296.87C405.84 305.711 412.915 312.899 421.669 312.899ZM421.669 314.439C431.244 314.439 439.005 306.573 439.005 296.87C439.005 287.166 431.244 279.3 421.669 279.3C412.094 279.3 404.332 287.166 404.332 296.87C404.332 306.573 412.094 314.439 421.669 314.439Z" fill="#BFDBFE"/>
</g>
<g clip-path="url(#clip3_122_37123)">
<rect x="502.824" y="213.08" width="100.502" height="175.56" rx="20" fill="white"/>
<path d="M626.442 339.617C626.442 352.233 616.543 362.46 604.331 362.46C592.12 362.46 582.221 352.233 582.221 339.617C582.221 327.001 592.12 316.773 604.331 316.773C616.543 316.773 626.442 327.001 626.442 339.617Z" fill="white"/>
<path fill-rule="evenodd" clip-rule="evenodd" d="M604.331 360.92C615.694 360.92 624.934 351.399 624.934 339.617C624.934 327.835 615.694 318.313 604.331 318.313C592.969 318.313 583.728 327.835 583.728 339.617C583.728 351.399 592.969 360.92 604.331 360.92ZM604.331 362.46C616.543 362.46 626.442 352.233 626.442 339.617C626.442 327.001 616.543 316.773 604.331 316.773C592.12 316.773 582.221 327.001 582.221 339.617C582.221 352.233 592.12 362.46 604.331 362.46Z" fill="#BFDBFE"/>
<path d="M586.242 274.937C586.242 291.805 572.968 305.48 556.594 305.48C540.219 305.48 526.945 291.805 526.945 274.937C526.945 258.068 540.219 244.393 556.594 244.393C572.968 244.393 586.242 258.068 586.242 274.937Z" fill="#BFDBFE"/>
<path d="M521.417 333.713L522.834 337.88L527.152 337.97L523.711 340.635L524.961 344.857L521.417 342.337L517.872 344.857L519.123 340.635L515.682 337.97L519.999 337.88L521.417 333.713Z" fill="#FACC15"/>
<path d="M542.02 333.713L543.438 337.88L547.755 337.97L544.314 340.635L545.565 344.857L542.02 342.337L538.476 344.857L539.726 340.635L536.285 337.97L540.602 337.88L542.02 333.713Z" fill="#FACC15"/>
<path d="M562.624 333.713L564.041 337.88L568.359 337.97L564.918 340.635L566.168 344.857L562.624 342.337L559.079 344.857L560.33 340.635L556.889 337.97L561.206 337.88L562.624 333.713Z" fill="#FACC15"/>
<path d="M583.225 333.713L584.643 337.88L588.96 337.97L585.519 340.635L586.77 344.857L583.225 342.337L579.681 344.857L580.931 340.635L577.49 337.97L581.807 337.88L583.225 333.713Z" fill="#FACC15"/>
<path d="M603.829 333.713L605.247 337.88L609.564 337.97L606.123 340.635L607.373 344.857L603.829 342.337L600.284 344.857L601.535 340.635L598.094 337.97L602.411 337.88L603.829 333.713Z" fill="#FACC15"/>
</g>
</g>
<rect x="40.5" y="17.5" width="595" height="421" rx="17.5" stroke="white" stroke-width="5"/>
</g>
<defs>
<filter id="filter0_dd_122_37123" x="0" y="0" width="676" height="504" filterUnits="userSpaceOnUse" color-interpolation-filters="sRGB">
<feFlood flood-opacity="0" result="BackgroundImageFix"/>
<feColorMatrix in="SourceAlpha" type="matrix" values="0 0 0 0 0 0 0 0 0 0 0 0 0 0 0 0 0 0 127 0" result="hardAlpha"/>
<feOffset/>
<feGaussianBlur stdDeviation="7.5"/>
<feComposite in2="hardAlpha" operator="out"/>
<feColorMatrix type="matrix" values="0 0 0 0 0 0 0 0 0 0 0 0 0 0 0 0 0 0 0.07 0"/>
<feBlend mode="normal" in2="BackgroundImageFix" result="effect1_dropShadow_122_37123"/>
<feColorMatrix in="SourceAlpha" type="matrix" values="0 0 0 0 0 0 0 0 0 0 0 0 0 0 0 0 0 0 127 0" result="hardAlpha"/>
<feMorphology radius="12" operator="erode" in="SourceAlpha" result="effect2_dropShadow_122_37123"/>
<feOffset dy="25"/>
<feGaussianBlur stdDeviation="25"/>
<feColorMatrix type="matrix" values="0 0 0 0 0 0 0 0 0 0 0 0 0 0 0 0 0 0 0.25 0"/>
<feBlend mode="normal" in2="effect1_dropShadow_122_37123" result="effect2_dropShadow_122_37123"/>
<feBlend mode="normal" in="SourceGraphic" in2="effect2_dropShadow_122_37123" result="shape"/>
</filter>
<clipPath id="clip0_122_37123">
<rect x="38" y="15" width="600" height="426" rx="20" fill="white"/>
</clipPath>
<clipPath id="clip1_122_37123">
<rect x="386.242" y="92.96" width="100.503" height="140.653" rx="20" fill="white"/>
</clipPath>
<clipPath id="clip2_122_37123">
<rect x="386.242" y="250.04" width="100.503" height="157.08" rx="20" fill="white"/>
</clipPath>
<clipPath id="clip3_122_37123">
<rect x="502.824" y="213.08" width="100.502" height="175.56" rx="20" fill="white"/>
</clipPath>
</defs>
</svg>
