<svg width="65" height="65" viewBox="0 0 65 65" fill="none" xmlns="http://www.w3.org/2000/svg">
<path d="M12.8605 39.4054L15.6312 33.5307C15.9869 32.7766 17.0144 32.7766 17.3701 33.5307L20.1408 39.4054L26.3369 40.3534C27.1319 40.475 27.4486 41.4976 26.8732 42.0846L22.3905 46.6542L23.4484 53.1099C23.5843 53.939 22.7528 54.571 22.0415 54.1795L16.5006 51.1299L10.9598 54.1795C10.2485 54.571 9.417 53.939 9.55286 53.1099L10.6108 46.6542L6.12812 42.0846C5.55257 41.4976 5.86942 40.475 6.66441 40.3534L12.8605 39.4054Z" stroke="#475569" stroke-width="1.5" stroke-linecap="round" stroke-linejoin="round"/>
<path d="M44.8603 39.4054L47.6313 33.5307C47.9867 32.7766 49.0145 32.7766 49.3699 33.5307L52.1409 39.4054L58.3369 40.3534C59.1318 40.475 59.4486 41.4976 58.8731 42.0846L54.3905 46.6542L55.4483 53.1099C55.5843 53.939 54.7529 54.571 54.0414 54.1795L48.5006 51.1299L42.9598 54.1795C42.2483 54.571 41.4169 53.939 41.5529 53.1099L42.6107 46.6542L38.1281 42.0846C37.5526 41.4976 37.8694 40.475 38.6643 40.3534L44.8603 39.4054Z" stroke="#475569" stroke-width="1.5" stroke-linecap="round" stroke-linejoin="round"/>
<path d="M28.8604 15.4055L31.6313 9.53071C31.9868 8.77655 33.0145 8.77655 33.37 9.53071L36.1409 15.4055L42.3369 16.3533C43.1318 16.4749 43.4486 17.4977 42.8732 18.0844L38.3905 22.6541L39.4484 29.1099C39.5844 29.9389 38.7529 30.571 38.0414 30.1795L32.5006 27.1298L26.9598 30.1795C26.2485 30.571 25.417 29.9389 25.5529 29.1099L26.6108 22.6541L22.1281 18.0844C21.5526 17.4977 21.8694 16.4749 22.6644 16.3533L28.8604 15.4055Z" stroke="#475569" stroke-width="1.5" stroke-linecap="round" stroke-linejoin="round"/>
</svg>
